<svg xmlns="http://www.w3.org/2000/svg" version="1.1" xmlns:xlink="http://www.w3.org/1999/xlink" xmlns:svgjs="http://svgjs.dev/svgjs" width="1000" height="1000" viewBox="0 0 1000 1000"><rect width="1000" height="1000" fill="#1b4571"></rect><g transform="matrix(0.7,0,0,0.7,149.5757588485094,362.0822478106293)"><svg viewBox="0 0 396 156" data-background-color="#1b4571" preserveAspectRatio="xMidYMid meet" height="393" width="1000" xmlns="http://www.w3.org/2000/svg" xmlns:xlink="http://www.w3.org/1999/xlink"><g id="tight-bounds" transform="matrix(1,0,0,1,0.23999927998613657,0.2085399547140412)"><svg viewBox="0 0 395.52 155.58292009057192" height="155.58292009057192" width="395.52"><g><svg viewBox="0 0 395.52 155.58292009057192" height="155.58292009057192" width="395.52"><g transform="matrix(1,0,0,1,0,84.45711799803779)"><svg viewBox="0 0 395.52 71.12580209253413" height="71.12580209253413" width="395.52"><g id="textblocktransform"><svg viewBox="0 0 395.52 71.12580209253413" height="71.12580209253413" width="395.52" id="textblock"><g><svg viewBox="0 0 395.52 45.47359379660005" height="45.47359379660005" width="395.52"><g transform="matrix(1,0,0,1,0,0)"><svg width="395.52" viewBox="2.75 -37.75 335.2799987792969 38.54999923706055" height="45.47359379660005" data-palette-color="#ffffff"><path d="M2.75 0L2.75-1.65Q4.65-1.75 5.35-2.53 6.05-3.3 6.13-4.67 6.2-6.05 6.2-7.8L6.2-7.8 6.2-29.4Q6.2-30.4 6.25-31.33 6.3-32.25 6.35-33L6.35-33Q5.45-32.95 4.55-32.9 3.65-32.85 2.75-32.8L2.75-32.8 2.75-35Q5.4-35.05 8.2-35.08 11-35.1 13.9-35.1L13.9-35.1Q18.75-35.1 22.05-34 25.35-32.9 27.1-30.75 28.85-28.6 29-25.4L29-25.4Q29.1-23.45 28.43-21.33 27.75-19.2 25.93-17.32 24.1-15.45 20.8-14.3 17.5-13.15 12.35-13.15L12.35-13.15Q12.15-13.15 11.6-13.15 11.05-13.15 10.55-13.2L10.55-13.2 10.55-5.95Q10.55-4.6 10.53-3.63 10.5-2.65 10.4-2L10.4-2Q11.2-2.05 11.95-2.1 12.7-2.15 13.48-2.18 14.25-2.2 15-2.25L15-2.25 15 0 2.75 0ZM10.55-27.2L10.55-15.25Q11.5-15.15 12.18-15.13 12.85-15.1 13.8-15.1L13.8-15.1Q16.65-15.1 19-16.23 21.35-17.35 22.75-19.45 24.15-21.55 24.15-24.45L24.15-24.45Q24.15-26.8 23.4-28.48 22.65-30.15 21.28-31.18 19.9-32.2 18-32.68 16.1-33.15 13.8-33.15L13.8-33.15Q12.05-33.15 11.38-32.4 10.7-31.65 10.63-30.33 10.55-29 10.55-27.2L10.55-27.2ZM54.5 0L47.35 0Q47.2-0.85 47.15-1.5 47.1-2.15 47-2.85L47-2.85Q45.3-1.15 43.32-0.18 41.35 0.8 39.15 0.8L39.15 0.8Q35.35 0.8 33.5-0.93 31.65-2.65 31.65-5.15L31.65-5.15Q31.65-7.45 33.07-9.13 34.5-10.8 36.77-11.88 39.05-12.95 41.72-13.48 44.4-14 46.9-13.95L46.9-13.95 46.9-17.05Q46.9-18.8 46.6-20.35 46.3-21.9 45.3-22.9 44.3-23.9 42.1-23.95L42.1-23.95Q40.65-24 39.12-23.4 37.6-22.8 36.9-21.35L36.9-21.35Q37.3-20.95 37.42-20.43 37.55-19.9 37.55-19.45L37.55-19.45Q37.55-18.85 37.05-18.07 36.55-17.3 35.3-17.35L35.3-17.35Q34.25-17.35 33.7-18.07 33.15-18.8 33.15-19.8L33.15-19.8Q33.15-21.5 34.42-22.85 35.7-24.2 37.95-25 40.2-25.8 43.05-25.8L43.05-25.8Q47.25-25.8 49.25-23.58 51.25-21.35 51.2-16.55L51.2-16.55Q51.2-14.7 51.2-12.83 51.2-10.95 51.17-9.08 51.15-7.2 51.15-5.3L51.15-5.3Q51.15-4.5 51.1-3.7 51.05-2.9 50.95-1.9L50.95-1.9Q51.85-1.95 52.72-2 53.6-2.05 54.5-2.1L54.5-2.1 54.5 0ZM46.9-12.25L46.9-12.25Q45.2-12.2 43.32-11.83 41.45-11.45 39.87-10.7 38.3-9.95 37.32-8.72 36.35-7.5 36.4-5.75L36.4-5.75Q36.5-3.9 37.62-2.98 38.75-2.05 40.3-2.05L40.3-2.05Q42.35-2.05 43.87-2.83 45.4-3.6 46.9-5L46.9-5Q46.85-5.55 46.85-6.2 46.85-6.85 46.85-7.55L46.85-7.55Q46.85-7.8 46.87-9.15 46.9-10.5 46.9-12.25ZM67.7 0.15L65.8 0.15 59.25-19.05Q58.9-20.1 58.62-20.85 58.35-21.6 58.2-22.15 58.05-22.7 57.95-23.1L57.95-23.1 55.3-22.95 55.3-25 65.9-25 65.9-23.5Q63.65-23.45 63.42-21.98 63.2-20.5 64-18.1L64-18.1 66.3-11.1Q66.7-9.9 67.09-8.68 67.5-7.45 67.9-6.25L67.9-6.25Q68.34-7.6 68.82-8.97 69.3-10.35 69.75-11.75L69.75-11.75 74.2-25 76.25-25 81.3-10.45Q81.7-9.35 82.09-8.2 82.5-7.05 82.9-5.9L82.9-5.9Q83.3-7 83.67-8.08 84.05-9.15 84.4-10.25L84.4-10.25 87.7-19.75Q88.05-20.75 88.4-21.65 88.75-22.55 89.2-23.1L89.2-23.1 86.3-22.95 86.3-25 95-25 95-23.5Q93.7-23.45 92.87-23.15 92.05-22.85 91.5-22.35 90.95-21.85 90.59-21.15 90.25-20.45 89.95-19.55L89.95-19.55 82.75 0.15 80.75 0.15 76-13.5Q75.7-14.4 75.4-15.28 75.09-16.15 74.8-17.03 74.5-17.9 74.2-18.75L74.2-18.75Q73.9-17.9 73.59-17.03 73.3-16.15 73-15.28 72.7-14.4 72.4-13.5L72.4-13.5 67.7 0.15ZM119.24-24.4L117.44-24.4Q117.29-26.8 116.29-28.95 115.29-31.1 113.39-32.45 111.49-33.8 108.54-33.8L108.54-33.8Q105.44-33.8 103.79-32.05 102.14-30.3 102.14-27.95L102.14-27.95Q102.14-25.85 103.34-24.43 104.54-23 106.47-21.93 108.39-20.85 110.54-19.85L110.54-19.85Q112.44-19 114.34-18.03 116.24-17.05 117.79-15.8 119.34-14.55 120.27-12.83 121.19-11.1 121.19-8.7L121.19-8.7Q121.19-5.95 119.82-3.8 118.44-1.65 115.84-0.43 113.24 0.8 109.49 0.8L109.49 0.8Q107.24 0.8 104.84 0.15 102.44-0.5 100.59-1.75L100.59-1.75 100.84 0.4 98.24 0.4 97.94-10.25 99.89-10.25Q100.14-5.85 102.94-3.58 105.74-1.3 109.69-1.3L109.69-1.3Q111.64-1.3 113.29-2.02 114.94-2.75 115.92-4.15 116.89-5.55 116.89-7.55L116.89-7.55Q116.89-9.8 115.69-11.3 114.49-12.8 112.59-13.9 110.69-15 108.54-16L108.54-16Q106.64-16.85 104.79-17.8 102.94-18.75 101.42-19.98 99.89-21.2 98.97-22.9 98.04-24.6 98.04-27L98.04-27Q98.04-28.3 98.49-29.8 98.94-31.3 100.07-32.68 101.19-34.05 103.17-34.93 105.14-35.8 108.19-35.8L108.19-35.8Q110.09-35.8 112.47-35.27 114.84-34.75 116.89-33.25L116.89-33.25 116.69-35.4 119.24-35.4 119.24-24.4ZM137.99 0.8L137.99 0.8Q134.49 0.8 131.64-0.83 128.79-2.45 127.12-5.33 125.44-8.2 125.44-11.9L125.44-11.9Q125.44-15.85 127.09-19 128.74-22.15 131.59-23.98 134.44-25.8 137.99-25.8L137.99-25.8Q141.49-25.8 144.34-24.13 147.19-22.45 148.89-19.6 150.59-16.75 150.59-13.1L150.59-13.1Q150.59-9.25 148.92-6.08 147.24-2.9 144.39-1.05 141.54 0.8 137.99 0.8ZM138.39-1.2L138.39-1.2Q141.04-1.2 142.59-2.7 144.14-4.2 144.82-6.6 145.49-9 145.49-11.65L145.49-11.65Q145.49-13.9 145.07-16.07 144.64-18.25 143.74-20.03 142.84-21.8 141.42-22.85 139.99-23.9 137.99-23.9L137.99-23.9Q135.39-23.9 133.74-22.4 132.09-20.9 131.32-18.5 130.54-16.1 130.54-13.35L130.54-13.35Q130.54-10.25 131.39-7.48 132.24-4.7 133.99-2.95 135.74-1.2 138.39-1.2ZM165.04 0L154.84 0 154.84-1.5Q156.39-1.5 156.99-2.27 157.59-3.05 157.69-4.42 157.79-5.8 157.79-7.6L157.79-7.6 157.79-19Q157.79-19.8 157.81-20.6 157.84-21.4 157.99-22.25L157.99-22.25Q157.09-22.2 156.21-22.15 155.34-22.1 154.44-22.05L154.44-22.05 154.44-24.15Q156.64-24.15 157.76-24.35 158.89-24.55 159.44-24.85 159.99-25.15 160.34-25.5L160.34-25.5 161.79-25.5Q161.89-25 161.91-24.35 161.94-23.7 161.99-22.85L161.99-22.85Q163.49-24.15 165.44-24.98 167.39-25.8 169.34-25.8L169.34-25.8Q171.84-25.8 173.54-24.9 175.24-24 176.19-22.45L176.19-22.45Q177.89-23.85 180.11-24.83 182.34-25.8 184.49-25.8L184.49-25.8Q188.84-25.8 190.89-23.18 192.94-20.55 192.84-14.6L192.84-14.6 192.79-5.3Q192.79-4.3 192.76-3.53 192.74-2.75 192.59-1.9L192.59-1.9Q193.39-1.95 194.16-1.98 194.94-2 195.74-2.05L195.74-2.05 195.74 0 185.54 0 185.54-1.5Q187.09-1.5 187.69-2.27 188.29-3.05 188.39-4.42 188.49-5.8 188.49-7.6L188.49-7.6 188.49-14.6Q188.49-18.9 187.11-21.05 185.74-23.2 182.79-23.15L182.79-23.15Q181.24-23.15 179.69-22.45 178.14-21.75 176.99-20.7L176.99-20.7Q177.24-19.9 177.36-18.98 177.49-18.05 177.49-17.05L177.49-17.05Q177.44-14.15 177.44-11.2 177.44-8.25 177.39-5.3L177.39-5.3Q177.39-4.3 177.36-3.53 177.34-2.75 177.19-1.9L177.19-1.9Q177.99-1.95 178.76-1.98 179.54-2 180.34-2.05L180.34-2.05 180.34 0 170.14 0 170.14-1.5Q171.69-1.5 172.26-2.27 172.84-3.05 172.96-4.42 173.09-5.8 173.09-7.6L173.09-7.6 173.14-14.6Q173.19-18.9 171.89-21.1 170.59-23.3 167.64-23.25L167.64-23.25Q166.09-23.25 164.59-22.58 163.09-21.9 162.04-20.85L162.04-20.85Q162.04-20.25 162.06-19.58 162.09-18.9 162.09-18.15L162.09-18.15 162.09-5.3Q162.09-4.3 162.06-3.53 162.04-2.75 161.89-1.9L161.89-1.9Q162.69-1.95 163.46-1.98 164.24-2 165.04-2.05L165.04-2.05 165.04 0ZM211.64 0.8L211.64 0.8Q208.19 0.8 205.41-0.83 202.64-2.45 201.04-5.43 199.44-8.4 199.44-12.45L199.44-12.45Q199.44-15.95 201.01-19 202.59-22.05 205.44-23.93 208.29-25.8 212.04-25.8L212.04-25.8Q214.14-25.8 215.96-25.13 217.79-24.45 219.19-23.08 220.59-21.7 221.39-19.63 222.19-17.55 222.19-14.75L222.19-14.75 204.59-14.45Q204.59-10.65 205.41-7.78 206.24-4.9 208.09-3.33 209.94-1.75 212.84-1.75L212.84-1.75Q214.39-1.75 216.01-2.3 217.64-2.85 219.04-3.8 220.44-4.75 221.29-5.9L221.29-5.9 222.49-4.9Q221.14-2.8 219.24-1.55 217.34-0.3 215.34 0.25 213.34 0.8 211.64 0.8ZM204.74-16.55L204.74-16.55 217.49-16.55Q217.49-18.35 216.96-20.03 216.44-21.7 215.24-22.78 214.04-23.85 212.09-23.85L212.09-23.85Q209.19-23.85 207.26-22.13 205.34-20.4 204.74-16.55ZM226.38 0L226.38-1.65Q228.28-1.75 228.98-2.53 229.68-3.3 229.76-4.67 229.83-6.05 229.83-7.8L229.83-7.8 229.83-29.4Q229.83-30.4 229.88-31.33 229.93-32.25 229.98-33L229.98-33Q229.08-32.95 228.18-32.9 227.28-32.85 226.38-32.8L226.38-32.8 226.38-35 238.18-35.05Q242.68-35.05 246.43-34 250.18-32.95 252.91-30.78 255.63-28.6 257.11-25.28 258.58-21.95 258.58-17.45L258.58-17.45Q258.58-14 257.38-10.85 256.18-7.7 253.78-5.28 251.38-2.85 247.81-1.43 244.23 0 239.53 0L239.53 0 226.38 0ZM234.18-27.2L234.18-5.9Q234.18-4.55 234.16-3.6 234.13-2.65 234.03-2L234.03-2Q235.38-1.95 236.51-1.93 237.63-1.9 238.41-1.9 239.18-1.9 239.38-1.9L239.38-1.9Q242.63-1.9 245.26-3.1 247.88-4.3 249.76-6.43 251.63-8.55 252.66-11.43 253.68-14.3 253.68-17.65L253.68-17.65Q253.68-22.4 251.96-25.88 250.23-29.35 246.68-31.28 243.13-33.2 237.63-33.2L237.63-33.2Q235.78-33.2 235.06-32.45 234.33-31.7 234.26-30.35 234.18-29 234.18-27.2L234.18-27.2ZM285.18 0L278.03 0Q277.88-0.85 277.83-1.5 277.78-2.15 277.68-2.85L277.68-2.85Q275.98-1.15 274.01-0.18 272.03 0.8 269.83 0.8L269.83 0.8Q266.03 0.8 264.18-0.93 262.33-2.65 262.33-5.15L262.33-5.15Q262.33-7.45 263.76-9.13 265.18-10.8 267.46-11.88 269.73-12.95 272.41-13.48 275.08-14 277.58-13.95L277.58-13.95 277.58-17.05Q277.58-18.8 277.28-20.35 276.98-21.9 275.98-22.9 274.98-23.9 272.78-23.95L272.78-23.95Q271.33-24 269.81-23.4 268.28-22.8 267.58-21.35L267.58-21.35Q267.98-20.95 268.11-20.43 268.23-19.9 268.23-19.45L268.23-19.45Q268.23-18.85 267.73-18.07 267.23-17.3 265.98-17.35L265.98-17.35Q264.93-17.35 264.38-18.07 263.83-18.8 263.83-19.8L263.83-19.8Q263.83-21.5 265.11-22.85 266.38-24.2 268.63-25 270.88-25.8 273.73-25.8L273.73-25.8Q277.93-25.8 279.93-23.58 281.93-21.35 281.88-16.55L281.88-16.55Q281.88-14.7 281.88-12.83 281.88-10.95 281.86-9.08 281.83-7.2 281.83-5.3L281.83-5.3Q281.83-4.5 281.78-3.7 281.73-2.9 281.63-1.9L281.63-1.9Q282.53-1.95 283.41-2 284.28-2.05 285.18-2.1L285.18-2.1 285.18 0ZM277.58-12.25L277.58-12.25Q275.88-12.2 274.01-11.83 272.13-11.45 270.56-10.7 268.98-9.95 268.01-8.72 267.03-7.5 267.08-5.75L267.08-5.75Q267.18-3.9 268.31-2.98 269.43-2.05 270.98-2.05L270.98-2.05Q273.03-2.05 274.56-2.83 276.08-3.6 277.58-5L277.58-5Q277.53-5.55 277.53-6.2 277.53-6.85 277.53-7.55L277.53-7.55Q277.53-7.8 277.56-9.15 277.58-10.5 277.58-12.25ZM298.88 0.8L298.88 0.8Q296.38 0.8 294.43 0.13 292.48-0.55 291.23-1.4L291.23-1.4 291.43 0.35 289.33 0.35 289.03-8.25 290.58-8.25Q290.68-6.2 291.73-4.58 292.78-2.95 294.43-2.05 296.08-1.15 297.98-1.15L297.98-1.15Q299.28-1.15 300.53-1.58 301.78-2 302.63-2.88 303.48-3.75 303.48-5.1L303.48-5.1Q303.48-6.5 302.65-7.43 301.83-8.35 300.48-9.05 299.13-9.75 297.58-10.35L297.58-10.35Q296.08-10.95 294.58-11.6 293.08-12.25 291.8-13.15 290.53-14.05 289.78-15.35 289.03-16.65 289.03-18.55L289.03-18.55Q289.03-19.6 289.43-20.85 289.83-22.1 290.78-23.23 291.73-24.35 293.38-25.08 295.03-25.8 297.58-25.8L297.58-25.8Q298.93-25.8 300.58-25.35 302.23-24.9 303.78-23.65L303.78-23.65 303.68-25.55 305.78-25.55 305.78-16.8 304.18-16.8Q304.08-18.55 303.38-20.18 302.68-21.8 301.33-22.88 299.98-23.95 297.83-23.95L297.83-23.95Q295.53-23.95 294.23-22.8 292.93-21.65 292.93-20.15L292.93-20.15Q292.93-18.6 293.9-17.57 294.88-16.55 296.43-15.8 297.98-15.05 299.73-14.35L299.73-14.35Q301.63-13.55 303.43-12.6 305.23-11.65 306.38-10.23 307.53-8.8 307.53-6.55L307.53-6.55Q307.53-4.05 306.25-2.4 304.98-0.75 303 0.03 301.03 0.8 298.88 0.8ZM327.83 0L327.83-1.5Q329.38-1.5 329.98-2.27 330.58-3.05 330.68-4.42 330.78-5.8 330.78-7.6L330.78-7.6 330.78-14.6Q330.78-18.9 329.4-21.05 328.03-23.2 325.08-23.15L325.08-23.15Q323.23-23.1 321.45-22.25 319.68-21.4 318.58-20.05L318.58-20.05 318.58-5.3Q318.58-4.3 318.53-3.53 318.48-2.75 318.33-1.9L318.33-1.9Q319.13-1.95 319.9-1.98 320.68-2 321.48-2.05L321.48-2.05 321.48 0 311.28 0 311.28-1.5Q312.83-1.5 313.43-2.27 314.03-3.05 314.15-4.42 314.28-5.8 314.28-7.6L314.28-7.6 314.28-31.25Q314.28-32.05 314.3-32.77 314.33-33.5 314.43-34.5L314.43-34.5Q313.53-34.45 312.65-34.4 311.78-34.35 310.88-34.3L310.88-34.3 310.88-36.4Q313.08-36.4 314.3-36.6 315.53-36.8 316.15-37.1 316.78-37.4 317.13-37.75L317.13-37.75 318.58-37.75 318.58-22.5Q319.68-23.45 321.05-24.18 322.43-24.9 323.9-25.35 325.38-25.8 326.78-25.8L326.78-25.8Q331.13-25.8 333.05-23.08 334.98-20.35 335.03-14.6L335.03-14.6 335.08-5.3Q335.08-4.3 335.05-3.53 335.03-2.75 334.88-1.9L334.88-1.9Q335.68-1.95 336.45-1.98 337.23-2 338.03-2.05L338.03-2.05 338.03 0 327.83 0Z" opacity="1" transform="matrix(1,0,0,1,0,0)" fill="#ffffff" class="undefined-text-0" data-fill-palette-color="primary" id="text-0"></path></svg></g></svg></g><g transform="matrix(1,0,0,1,75.54432,56.2088179257262)"><svg viewBox="0 0 244.43135999999998 14.91698416680793" height="14.91698416680793" width="244.43135999999998"><g transform="matrix(1,0,0,1,0,0)"><svg width="244.43135999999998" viewBox="0.45000001788139343 -35.5 589.8200073242188 36" height="14.91698416680793" data-palette-color="#ffffff"><path d="M7.1 0L7.1-14.9 0.45-35 6.3-35 10.05-22.15 10.15-22.15 13.9-35 19.25-35 12.6-14.9 12.6 0 7.1 0ZM28.8 0.5Q24.75 0.5 22.6-1.8 20.45-4.1 20.45-8.3L20.45-8.3 20.45-26.7Q20.45-30.9 22.6-33.2 24.75-35.5 28.8-35.5L28.8-35.5Q32.85-35.5 35-33.2 37.15-30.9 37.15-26.7L37.15-26.7 37.15-8.3Q37.15-4.1 35-1.8 32.85 0.5 28.8 0.5L28.8 0.5ZM28.8-4.5Q31.65-4.5 31.65-7.95L31.65-7.95 31.65-27.05Q31.65-30.5 28.8-30.5L28.8-30.5Q25.95-30.5 25.95-27.05L25.95-27.05 25.95-7.95Q25.95-4.5 28.8-4.5L28.8-4.5ZM48.84 0.5Q44.84 0.5 42.75-1.78 40.65-4.05 40.65-8.3L40.65-8.3 40.65-35 46.15-35 46.15-7.9Q46.15-6.1 46.87-5.3 47.59-4.5 48.95-4.5L48.95-4.5Q50.3-4.5 51.02-5.3 51.75-6.1 51.75-7.9L51.75-7.9 51.75-35 57.05-35 57.05-8.3Q57.05-4.05 54.95-1.78 52.84 0.5 48.84 0.5L48.84 0.5ZM60.94 0L60.94-35 69.09-35Q73.34-35 75.29-33.02 77.24-31.05 77.24-26.95L77.24-26.95 77.24-24.8Q77.24-19.35 73.64-17.9L73.64-17.9 73.64-17.8Q75.64-17.2 76.47-15.35 77.29-13.5 77.29-10.4L77.29-10.4 77.29-4.25Q77.29-2.75 77.39-1.83 77.49-0.9 77.89 0L77.89 0 72.29 0Q71.99-0.85 71.89-1.6 71.79-2.35 71.79-4.3L71.79-4.3 71.79-10.7Q71.79-13.1 71.02-14.05 70.24-15 68.34-15L68.34-15 66.44-15 66.44 0 60.94 0ZM66.44-20L68.44-20Q70.09-20 70.92-20.85 71.74-21.7 71.74-23.7L71.74-23.7 71.74-26.4Q71.74-28.3 71.07-29.15 70.39-30 68.94-30L68.94-30 66.44-30 66.44-20ZM96.89 0.5Q92.89 0.5 90.79-1.78 88.69-4.05 88.69-8.3L88.69-8.3 88.69-26.7Q88.69-30.95 90.79-33.23 92.89-35.5 96.89-35.5L96.89-35.5Q100.89-35.5 102.99-33.23 105.09-30.95 105.09-26.7L105.09-26.7 105.09-23.7 99.89-23.7 99.89-27.05Q99.89-30.5 97.04-30.5L97.04-30.5Q94.19-30.5 94.19-27.05L94.19-27.05 94.19-7.9Q94.19-4.5 97.04-4.5L97.04-4.5Q99.89-4.5 99.89-7.9L99.89-7.9 99.89-14.75 97.14-14.75 97.14-19.75 105.09-19.75 105.09-8.3Q105.09-4.05 102.99-1.78 100.89 0.5 96.89 0.5L96.89 0.5ZM116.59 0.5Q112.54 0.5 110.39-1.8 108.24-4.1 108.24-8.3L108.24-8.3 108.24-26.7Q108.24-30.9 110.39-33.2 112.54-35.5 116.59-35.5L116.59-35.5Q120.64-35.5 122.79-33.2 124.94-30.9 124.94-26.7L124.94-26.7 124.94-8.3Q124.94-4.1 122.79-1.8 120.64 0.5 116.59 0.5L116.59 0.5ZM116.59-4.5Q119.44-4.5 119.44-7.95L119.44-7.95 119.44-27.05Q119.44-30.5 116.59-30.5L116.59-30.5Q113.74-30.5 113.74-27.05L113.74-27.05 113.74-7.95Q113.74-4.5 116.59-4.5L116.59-4.5ZM127.83-15L127.83-20 138.83-20 138.83-15 127.83-15ZM142.78 0L142.78-30 137.03-30 137.03-35 154.03-35 154.03-30 148.28-30 148.28 0 142.78 0ZM164.43 0.5Q160.38 0.5 158.23-1.8 156.08-4.1 156.08-8.3L156.08-8.3 156.08-26.7Q156.08-30.9 158.23-33.2 160.38-35.5 164.43-35.5L164.43-35.5Q168.48-35.5 170.63-33.2 172.78-30.9 172.78-26.7L172.78-26.7 172.78-8.3Q172.78-4.1 170.63-1.8 168.48 0.5 164.43 0.5L164.43 0.5ZM164.43-4.5Q167.28-4.5 167.28-7.95L167.28-7.95 167.28-27.05Q167.28-30.5 164.43-30.5L164.43-30.5Q161.58-30.5 161.58-27.05L161.58-27.05 161.58-7.95Q161.58-4.5 164.43-4.5L164.43-4.5ZM184.47 0L184.47-35 192.57-35Q196.67-35 198.72-32.8 200.77-30.6 200.77-26.35L200.77-26.35 200.77-22.9Q200.77-18.65 198.72-16.45 196.67-14.25 192.57-14.25L192.57-14.25 189.97-14.25 189.97 0 184.47 0ZM189.97-19.25L192.57-19.25Q193.92-19.25 194.6-20 195.27-20.75 195.27-22.55L195.27-22.55 195.27-26.7Q195.27-28.5 194.6-29.25 193.92-30 192.57-30L192.57-30 189.97-30 189.97-19.25ZM203.77 0L203.77-35 218.77-35 218.77-30 209.27-30 209.27-20.75 216.82-20.75 216.82-15.75 209.27-15.75 209.27-5 218.77-5 218.77 0 203.77 0ZM226.22 0L226.22-30 220.47-30 220.47-35 237.47-35 237.47-30 231.72-30 231.72 0 226.22 0ZM246.66 0L252.36-35 259.81-35 265.51 0 260.01 0 259.01-6.95 259.01-6.85 252.76-6.85 251.76 0 246.66 0ZM253.41-11.6L258.36-11.6 255.91-28.9 255.81-28.9 253.41-11.6ZM268.16 0L268.16-35 276.56-35Q280.66-35 282.71-32.8 284.76-30.6 284.76-26.35L284.76-26.35 284.76-8.65Q284.76-4.4 282.71-2.2 280.66 0 276.56 0L276.56 0 268.16 0ZM273.66-5L276.46-5Q277.81-5 278.54-5.8 279.26-6.6 279.26-8.4L279.26-8.4 279.26-26.6Q279.26-28.4 278.54-29.2 277.81-30 276.46-30L276.46-30 273.66-30 273.66-5ZM296.41 0.5Q292.36 0.5 290.21-1.8 288.06-4.1 288.06-8.3L288.06-8.3 288.06-26.7Q288.06-30.9 290.21-33.2 292.36-35.5 296.41-35.5L296.41-35.5Q300.46-35.5 302.61-33.2 304.76-30.9 304.76-26.7L304.76-26.7 304.76-8.3Q304.76-4.1 302.61-1.8 300.46 0.5 296.41 0.5L296.41 0.5ZM296.41-4.5Q299.26-4.5 299.26-7.95L299.26-7.95 299.26-27.05Q299.26-30.5 296.41-30.5L296.41-30.5Q293.56-30.5 293.56-27.05L293.56-27.05 293.56-7.95Q293.56-4.5 296.41-4.5L296.41-4.5ZM308.46 0L308.46-35 316.56-35Q320.66-35 322.71-32.8 324.76-30.6 324.76-26.35L324.76-26.35 324.76-22.9Q324.76-18.65 322.71-16.45 320.66-14.25 316.56-14.25L316.56-14.25 313.96-14.25 313.96 0 308.46 0ZM313.96-19.25L316.56-19.25Q317.91-19.25 318.58-20 319.26-20.75 319.26-22.55L319.26-22.55 319.26-26.7Q319.26-28.5 318.58-29.25 317.91-30 316.56-30L316.56-30 313.96-30 313.96-19.25ZM332.15 0L332.15-30 326.4-30 326.4-35 343.4-35 343.4-30 337.65-30 337.65 0 332.15 0ZM346.05 0L346.05-35 351.55-35 351.55 0 346.05 0ZM363.6 0.5Q359.55 0.5 357.4-1.8 355.25-4.1 355.25-8.3L355.25-8.3 355.25-26.7Q355.25-30.9 357.4-33.2 359.55-35.5 363.6-35.5L363.6-35.5Q367.65-35.5 369.8-33.2 371.95-30.9 371.95-26.7L371.95-26.7 371.95-8.3Q371.95-4.1 369.8-1.8 367.65 0.5 363.6 0.5L363.6 0.5ZM363.6-4.5Q366.45-4.5 366.45-7.95L366.45-7.95 366.45-27.05Q366.45-30.5 363.6-30.5L363.6-30.5Q360.75-30.5 360.75-27.05L360.75-27.05 360.75-7.95Q360.75-4.5 363.6-4.5L363.6-4.5ZM375.65 0L375.65-35 382.55-35 387.9-14.05 388-14.05 388-35 392.9-35 392.9 0 387.25 0 380.65-25.55 380.55-25.55 380.55 0 375.65 0ZM404.99 0L404.99-35 413.39-35Q417.49-35 419.54-32.8 421.59-30.6 421.59-26.35L421.59-26.35 421.59-8.65Q421.59-4.4 419.54-2.2 417.49 0 413.39 0L413.39 0 404.99 0ZM410.49-5L413.29-5Q414.64-5 415.37-5.8 416.09-6.6 416.09-8.4L416.09-8.4 416.09-26.6Q416.09-28.4 415.37-29.2 414.64-30 413.29-30L413.29-30 410.49-30 410.49-5ZM423.74 0L429.44-35 436.89-35 442.59 0 437.09 0 436.09-6.95 436.09-6.85 429.84-6.85 428.84 0 423.74 0ZM430.49-11.6L435.44-11.6 432.99-28.9 432.89-28.9 430.49-11.6ZM452.24 0.5Q448.24 0.5 446.19-1.78 444.14-4.05 444.14-8.3L444.14-8.3 444.14-10.3 449.34-10.3 449.34-7.9Q449.34-4.5 452.19-4.5L452.19-4.5Q453.59-4.5 454.31-5.33 455.04-6.15 455.04-8L455.04-8Q455.04-10.2 454.04-11.88 453.04-13.55 450.34-15.9L450.34-15.9Q446.94-18.9 445.59-21.33 444.24-23.75 444.24-26.8L444.24-26.8Q444.24-30.95 446.34-33.23 448.44-35.5 452.44-35.5L452.44-35.5Q456.39-35.5 458.41-33.23 460.44-30.95 460.44-26.7L460.44-26.7 460.44-25.25 455.24-25.25 455.24-27.05Q455.24-28.85 454.54-29.68 453.84-30.5 452.49-30.5L452.49-30.5Q449.74-30.5 449.74-27.15L449.74-27.15Q449.74-25.25 450.76-23.6 451.79-21.95 454.49-19.6L454.49-19.6Q457.94-16.6 459.24-14.15 460.54-11.7 460.54-8.4L460.54-8.4Q460.54-4.1 458.41-1.8 456.29 0.5 452.24 0.5L452.24 0.5ZM463.68 0L463.68-35 469.18-35 469.18-20.75 475.08-20.75 475.08-35 480.58-35 480.58 0 475.08 0 475.08-15.75 469.18-15.75 469.18 0 463.68 0ZM484.68 0L484.68-35 492.98-35Q497.23-35 499.18-33.02 501.13-31.05 501.13-26.95L501.13-26.95 501.13-25.55Q501.13-22.85 500.26-21.15 499.38-19.45 497.58-18.7L497.58-18.7 497.58-18.6Q501.68-17.2 501.68-11.3L501.68-11.3 501.68-8.3Q501.68-4.25 499.56-2.13 497.43 0 493.33 0L493.33 0 484.68 0ZM490.18-20.75L492.33-20.75Q493.98-20.75 494.81-21.6 495.63-22.45 495.63-24.45L495.63-24.45 495.63-26.4Q495.63-28.3 494.96-29.15 494.28-30 492.83-30L492.83-30 490.18-30 490.18-20.75ZM490.18-5L493.33-5Q494.78-5 495.48-5.78 496.18-6.55 496.18-8.45L496.18-8.45 496.18-11.5Q496.18-13.9 495.36-14.83 494.53-15.75 492.63-15.75L492.63-15.75 490.18-15.75 490.18-5ZM512.83 0.5Q508.78 0.5 506.63-1.8 504.48-4.1 504.48-8.3L504.48-8.3 504.48-26.7Q504.48-30.9 506.63-33.2 508.78-35.5 512.83-35.5L512.83-35.5Q516.88-35.5 519.03-33.2 521.18-30.9 521.18-26.7L521.18-26.7 521.18-8.3Q521.18-4.1 519.03-1.8 516.88 0.5 512.83 0.5L512.83 0.5ZM512.83-4.5Q515.68-4.5 515.68-7.95L515.68-7.95 515.68-27.05Q515.68-30.5 512.83-30.5L512.83-30.5Q509.98-30.5 509.98-27.05L509.98-27.05 509.98-7.95Q509.98-4.5 512.83-4.5L512.83-4.5ZM523.33 0L529.02-35 536.48-35 542.18 0 536.68 0 535.68-6.95 535.68-6.85 529.43-6.85 528.43 0 523.33 0ZM530.08-11.6L535.02-11.6 532.58-28.9 532.48-28.9 530.08-11.6ZM544.82 0L544.82-35 552.97-35Q557.22-35 559.17-33.02 561.12-31.05 561.12-26.95L561.12-26.95 561.12-24.8Q561.12-19.35 557.52-17.9L557.52-17.9 557.52-17.8Q559.52-17.2 560.35-15.35 561.17-13.5 561.17-10.4L561.17-10.4 561.17-4.25Q561.17-2.75 561.27-1.83 561.37-0.9 561.77 0L561.77 0 556.17 0Q555.87-0.85 555.77-1.6 555.67-2.35 555.67-4.3L555.67-4.3 555.67-10.7Q555.67-13.1 554.9-14.05 554.12-15 552.22-15L552.22-15 550.32-15 550.32 0 544.82 0ZM550.32-20L552.32-20Q553.97-20 554.8-20.85 555.62-21.7 555.62-23.7L555.62-23.7 555.62-26.4Q555.62-28.3 554.95-29.15 554.27-30 552.82-30L552.82-30 550.32-30 550.32-20ZM564.97 0L564.97-35 573.37-35Q577.47-35 579.52-32.8 581.57-30.6 581.57-26.35L581.57-26.35 581.57-8.65Q581.57-4.4 579.52-2.2 577.47 0 573.37 0L573.37 0 564.97 0ZM570.47-5L573.27-5Q574.62-5 575.34-5.8 576.07-6.6 576.07-8.4L576.07-8.4 576.07-26.6Q576.07-28.4 575.34-29.2 574.62-30 573.27-30L573.27-30 570.47-30 570.47-5ZM584.97 0L584.97-5.3 590.27-5.3 590.27 0 584.97 0Z" opacity="1" transform="matrix(1,0,0,1,0,0)" fill="#ffffff" class="undefined-text-1" data-fill-palette-color="secondary" id="text-1"></path></svg></g></svg></g></svg></g></svg></g><g transform="matrix(1,0,0,1,150.1048005726727,0)"><svg viewBox="0 0 95.31039885465458 73.72189386891164" height="73.72189386891164" width="95.31039885465458"><g><svg xmlns="http://www.w3.org/2000/svg" xmlns:xlink="http://www.w3.org/1999/xlink" version="1.0" x="8" y="0" viewBox="13.74041748046875 18.29694938659668 72.5190658569336 67.40910339355469" enable-background="new 0 0 100 100" xml:space="preserve" height="73.72189386891164" width="79.31039885465458" class="icon-icon-0" data-fill-palette-color="accent" id="icon-0"><g fill="#bf2051" data-fill-palette-color="accent"><g fill="#bf2051" data-fill-palette-color="accent"><path d="M37.406 40.596c2.149-0.979 4.372-1.99 6.708-2.64 2.294-0.638 7.031-1.963 6.162-5.879 2.369-0.111 7.472-0.306 11.722-0.169 2.972 0.097 10.074-0.008 11.877-3.067 0.461-0.782 0.781-2.098-0.311-3.928-0.85-1.426-2.243-1.49-3.26-1.536-1.201-0.054-2.389-0.065-3.804-0.065-1.697 0-3.443-0.236-5.133-0.465l-0.314-0.042c-3.603-0.486-7.339-1.116-11.105-1.874-1.459-0.293-2.913-0.659-4.32-1.012-4.254-1.069-8.657-2.173-13.465-1.315-2.717 0.485-5.262 1.523-7.724 2.527l-1.152 0.468c-2.11 0.848-4.302 1.631-6.42 2.388-0.824 0.294-1.647 0.588-2.468 0.886-0.519 0.189-0.787 0.763-0.598 1.282 0.189 0.519 0.762 0.788 1.282 0.598 0.817-0.297 1.637-0.59 2.457-0.883 2.137-0.763 4.347-1.552 6.493-2.415l1.161-0.472c2.366-0.965 4.812-1.962 7.321-2.41 4.39-0.785 8.391 0.221 12.626 1.285 1.429 0.359 2.906 0.73 4.412 1.034 3.809 0.766 7.588 1.404 11.233 1.895l0.314 0.042c1.754 0.237 3.569 0.482 5.4 0.483 1.388 0 2.55 0.011 3.712 0.063 1.035 0.047 1.375 0.127 1.635 0.563 0.713 1.196 0.406 1.716 0.305 1.887-0.96 1.627-5.904 2.223-10.089 2.084-4.869-0.16-10.81 0.113-12.65 0.208-1.407-1.904-3.846-1.988-5.13-1.684l-15.25 2.311c-0.546 0.083-0.921 0.593-0.839 1.138 0.083 0.546 0.595 0.924 1.139 0.839l15.324-2.325c0.306-0.068 3-0.594 3.658 2.041 0.441 1.765-1.575 2.713-4.794 3.608-2.431 0.676-4.726 1.721-6.944 2.731-1.1 0.5-2.237 1.019-3.363 1.477-1.538 0.627-3.324 1.316-5.063 1.565-2.978 0.425-6.109 0.283-9.138 0.144-1.369-0.063-2.785-0.127-4.175-0.139-0.584-0.025-1.004 0.439-1.008 0.991s0.439 1.004 0.991 1.009c1.353 0.012 2.75 0.075 4.1 0.137 1.54 0.07 3.106 0.142 4.678 0.142 1.613 0 3.232-0.075 4.835-0.305 1.964-0.28 3.887-1.021 5.535-1.692C35.132 41.631 36.288 41.105 37.406 40.596z" fill="#bf2051" data-fill-palette-color="accent"></path><path d="M86.239 83.933l-0.496-2.413c-2.08-10.111-4.983-20.197-7.542-28.857-0.295-0.999-0.588-1.998-0.878-2.998-0.103-0.354-0.392-0.623-0.753-0.7-0.363-0.077-0.734 0.051-0.972 0.333l-4.927 5.837c-0.573-2.149-1.047-3.899-1.348-4.954-1.825-6.389-6.061-6.475-6.241-6.475 0 0-5.86-0.018-9.321-0.018-3.914 0-6.409 3.261-6.528 3.42l-3.813 5.353-12.878 2.281c-0.506 0.09-0.862 0.549-0.823 1.061 0.019 0.242 0.036 0.561 0.057 0.94 0.309 5.582 1.009 10.889 4.014 11.91 2.83 0.962 5.824 1.227 8.718 1.484 0.603 0.053 1.206 0.106 1.806 0.166 0.24 2.646 1.015 10.832 1.697 13.833 0.105 0.464 0.518 0.778 0.974 0.779 0.073 0 0.148-0.008 0.223-0.025 0.539-0.123 0.876-0.658 0.753-1.197-0.771-3.393-1.718-14.275-1.728-14.385-0.041-0.475-0.412-0.855-0.885-0.908-0.882-0.098-1.772-0.177-2.663-0.255-2.777-0.246-5.649-0.5-8.252-1.386-1.42-0.483-2.315-3.89-2.66-10.127-0.001-0.026-0.003-0.051-0.004-0.076l12.402-2.197c0.258-0.046 0.488-0.191 0.641-0.404l4.035-5.666c0.02-0.026 1.988-2.601 4.914-2.601 3.439 0 9.249 0.018 9.3 0.018 0 0 0 0 0 0 0.12 0.004 2.949 0.159 4.339 5.025 0.319 1.118 0.837 3.031 1.458 5.368l-5.505 0.794c-2.611 0.286-3.766 2.367-4.785 4.203-0.29 0.523-0.564 1.017-0.862 1.456-0.091 0.134-0.191 0.308-0.299 0.499-0.136 0.24-0.419 0.74-0.516 0.817-0.058 0.016-0.113 0.038-0.167 0.064-0.088 0.043-2.171 1.056-3.612 2.016-0.3 0.2-0.469 0.546-0.442 0.906 0.022 0.303 0.615 7.438 6.148 8.167 3.272 0.431 5.6 0.544 6.804 0.571l0.847 9.206c0.047 0.519 0.483 0.908 0.995 0.908 0.03 0 0.062-0.001 0.093-0.004 0.55-0.05 0.955-0.537 0.903-1.088l-0.93-10.109c-0.048-0.524-0.503-0.922-1.02-0.907-0.028 0-2.752 0.056-7.431-0.56-3.173-0.417-4.099-4.272-4.339-5.756 1.136-0.696 2.496-1.374 2.796-1.521 0.792-0.279 1.263-1.11 1.61-1.723 0.079-0.139 0.149-0.266 0.215-0.364 0.348-0.513 0.657-1.069 0.955-1.608 1.041-1.874 1.778-3.023 3.288-3.189l5.77-0.832 1.284-0.185c0.243-0.035 0.464-0.158 0.621-0.344l0.018-0.021 4.628-5.483c0.119 0.406 0.239 0.812 0.358 1.217 2.547 8.621 5.437 18.659 7.501 28.694l0.496 2.412c0.111 0.541 0.638 0.891 1.18 0.779C86.001 85.003 86.35 84.474 86.239 83.933z" fill="#bf2051" data-fill-palette-color="accent"></path></g></g></svg></g></svg></g><g><rect width="150.1048005726727" height="4.100855617326191" y="68.62103825158545" x="245.41519942732728" fill="#bf2051" data-fill-palette-color="accent"></rect><rect width="150.1048005726727" height="4.100855617326191" y="68.62103825158545" x="0" fill="#bf2051" data-fill-palette-color="accent"></rect><rect width="150.1048005726727" height="4.100855617326191" y="60.41932701693306" x="245.41519942732728" fill="#bf2051" data-fill-palette-color="accent"></rect><rect width="150.1048005726727" height="4.100855617326191" y="60.41932701693306" x="0" fill="#bf2051" data-fill-palette-color="accent"></rect></g></svg></g><defs></defs></svg><rect width="395.52" height="155.58292009057192" fill="none" stroke="none" visibility="hidden"></rect></g></svg></g></svg>