<svg xmlns="http://www.w3.org/2000/svg" version="1.1" xmlns:xlink="http://www.w3.org/1999/xlink" xmlns:svgjs="http://svgjs.dev/svgjs" width="128" height="128" viewBox="0 0 128 128"><g transform="matrix(0.8046875,0,0,0.8046875,12.76083049864014,15.988249650694954)"><svg viewBox="0 0 95 89" data-background-color="#1b4571" preserveAspectRatio="xMidYMid meet" height="119" width="128" xmlns="http://www.w3.org/2000/svg" xmlns:xlink="http://www.w3.org/1999/xlink"><g id="tight-bounds" transform="matrix(1,0,0,1,-0.2405677618891957,0.12346903641046936)"><svg viewBox="0 0 95.481 88.75306192717908" height="88.75306192717908" width="95.481"><g><svg viewBox="0 0 95.481 88.75306192717908" height="88.75306192717908" width="95.481"><g><svg viewBox="0 0 95.481 88.75306192717908" height="88.75306192717908" width="95.481"><g id="textblocktransform"><svg viewBox="0 0 95.481 88.75306192717908" height="88.75306192717908" width="95.481" id="textblock"><g><svg viewBox="0 0 95.481 88.75306192717908" height="88.75306192717908" width="95.481"><g><svg viewBox="0 0 95.481 88.75306192717908" height="88.75306192717908" width="95.481"><g><svg xmlns="http://www.w3.org/2000/svg" xmlns:xlink="http://www.w3.org/1999/xlink" version="1.0" x="0" y="0" viewBox="13.740417889216545 18.296949127665876 72.51906209650478 67.40910557233411" enable-background="new 0 0 100 100" xml:space="preserve" height="88.75306192717908" width="95.481" class="icon-icon-0" data-fill-palette-color="accent" id="icon-0"><g fill="#bf2051" data-fill-palette-color="accent"><g fill="#bf2051" data-fill-palette-color="accent"><path d="M37.406 40.596c2.149-0.979 4.372-1.99 6.708-2.64 2.294-0.638 7.031-1.963 6.162-5.879 2.369-0.111 7.472-0.306 11.722-0.169 2.972 0.097 10.074-0.008 11.877-3.067 0.461-0.782 0.781-2.098-0.311-3.928-0.85-1.426-2.243-1.49-3.26-1.536-1.201-0.054-2.389-0.065-3.804-0.065-1.697 0-3.443-0.236-5.133-0.465l-0.314-0.042c-3.603-0.486-7.339-1.116-11.105-1.874-1.459-0.293-2.913-0.659-4.32-1.012-4.254-1.069-8.657-2.173-13.465-1.315-2.717 0.485-5.262 1.523-7.724 2.527l-1.152 0.468c-2.11 0.848-4.302 1.631-6.42 2.388-0.824 0.294-1.647 0.588-2.468 0.886-0.519 0.189-0.787 0.763-0.598 1.282 0.189 0.519 0.762 0.788 1.282 0.598 0.817-0.297 1.637-0.59 2.457-0.883 2.137-0.763 4.347-1.552 6.493-2.415l1.161-0.472c2.366-0.965 4.812-1.962 7.321-2.41 4.39-0.785 8.391 0.221 12.626 1.285 1.429 0.359 2.906 0.73 4.412 1.034 3.809 0.766 7.588 1.404 11.233 1.895l0.314 0.042c1.754 0.237 3.569 0.482 5.4 0.483 1.388 0 2.55 0.011 3.712 0.063 1.035 0.047 1.375 0.127 1.635 0.563 0.713 1.196 0.406 1.716 0.305 1.887-0.96 1.627-5.904 2.223-10.089 2.084-4.869-0.16-10.81 0.113-12.65 0.208-1.407-1.904-3.846-1.988-5.13-1.684l-15.25 2.311c-0.546 0.083-0.921 0.593-0.839 1.138 0.083 0.546 0.595 0.924 1.139 0.839l15.324-2.325c0.306-0.068 3-0.594 3.658 2.041 0.441 1.765-1.575 2.713-4.794 3.608-2.431 0.676-4.726 1.721-6.944 2.731-1.1 0.5-2.237 1.019-3.363 1.477-1.538 0.627-3.324 1.316-5.063 1.565-2.978 0.425-6.109 0.283-9.138 0.144-1.369-0.063-2.785-0.127-4.175-0.139-0.584-0.025-1.004 0.439-1.008 0.991s0.439 1.004 0.991 1.009c1.353 0.012 2.75 0.075 4.1 0.137 1.54 0.07 3.106 0.142 4.678 0.142 1.613 0 3.232-0.075 4.835-0.305 1.964-0.28 3.887-1.021 5.535-1.692C35.132 41.631 36.288 41.105 37.406 40.596z" fill="#000000" data-fill-palette-color="accent"></path><path d="M86.239 83.933l-0.496-2.413c-2.08-10.111-4.983-20.197-7.542-28.857-0.295-0.999-0.588-1.998-0.878-2.998-0.103-0.354-0.392-0.623-0.753-0.7-0.363-0.077-0.734 0.051-0.972 0.333l-4.927 5.837c-0.573-2.149-1.047-3.899-1.348-4.954-1.825-6.389-6.061-6.475-6.241-6.475 0 0-5.86-0.018-9.321-0.018-3.914 0-6.409 3.261-6.528 3.42l-3.813 5.353-12.878 2.281c-0.506 0.09-0.862 0.549-0.823 1.061 0.019 0.242 0.036 0.561 0.057 0.94 0.309 5.582 1.009 10.889 4.014 11.91 2.83 0.962 5.824 1.227 8.718 1.484 0.603 0.053 1.206 0.106 1.806 0.166 0.24 2.646 1.015 10.832 1.697 13.833 0.105 0.464 0.518 0.778 0.974 0.779 0.073 0 0.148-0.008 0.223-0.025 0.539-0.123 0.876-0.658 0.753-1.197-0.771-3.393-1.718-14.275-1.728-14.385-0.041-0.475-0.412-0.855-0.885-0.908-0.882-0.098-1.772-0.177-2.663-0.255-2.777-0.246-5.649-0.5-8.252-1.386-1.42-0.483-2.315-3.89-2.66-10.127-0.001-0.026-0.003-0.051-0.004-0.076l12.402-2.197c0.258-0.046 0.488-0.191 0.641-0.404l4.035-5.666c0.02-0.026 1.988-2.601 4.914-2.601 3.439 0 9.249 0.018 9.3 0.018 0 0 0 0 0 0 0.12 0.004 2.949 0.159 4.339 5.025 0.319 1.118 0.837 3.031 1.458 5.368l-5.505 0.794c-2.611 0.286-3.766 2.367-4.785 4.203-0.29 0.523-0.564 1.017-0.862 1.456-0.091 0.134-0.191 0.308-0.299 0.499-0.136 0.24-0.419 0.74-0.516 0.817-0.058 0.016-0.113 0.038-0.167 0.064-0.088 0.043-2.171 1.056-3.612 2.016-0.3 0.2-0.469 0.546-0.442 0.906 0.022 0.303 0.615 7.438 6.148 8.167 3.272 0.431 5.6 0.544 6.804 0.571l0.847 9.206c0.047 0.519 0.483 0.908 0.995 0.908 0.03 0 0.062-0.001 0.093-0.004 0.55-0.05 0.955-0.537 0.903-1.088l-0.93-10.109c-0.048-0.524-0.503-0.922-1.02-0.907-0.028 0-2.752 0.056-7.431-0.56-3.173-0.417-4.099-4.272-4.339-5.756 1.136-0.696 2.496-1.374 2.796-1.521 0.792-0.279 1.263-1.11 1.61-1.723 0.079-0.139 0.149-0.266 0.215-0.364 0.348-0.513 0.657-1.069 0.955-1.608 1.041-1.874 1.778-3.023 3.288-3.189l5.77-0.832 1.284-0.185c0.243-0.035 0.464-0.158 0.621-0.344l0.018-0.021 4.628-5.483c0.119 0.406 0.239 0.812 0.358 1.217 2.547 8.621 5.437 18.659 7.501 28.694l0.496 2.412c0.111 0.541 0.638 0.891 1.18 0.779C86.001 85.003 86.35 84.474 86.239 83.933z" fill="#000000" data-fill-palette-color="accent"></path></g></g></svg></g></svg></g></svg></g></svg></g></svg></g><g></g></svg></g><defs></defs></svg><rect width="95.481" height="88.75306192717908" fill="none" stroke="none" visibility="hidden"></rect></g></svg></g></svg>